# xmcd
#
# Track frame offsets: 
#        150
#        31408
#        59311
#        67300
#        90864
#        102524
#        128718
#        137475
#        145000
#        174411
#        180521
#        227469
#
# Disc length: 4770 seconds
#
# Revision: 1
# Processed by: cddbd v1.5.2PL0 Copyright (c) Steve Scherf et al.
# Submitted via: ExactAudioCopy v0.95b4
#
DISCID=9a12a00c
DTITLE=Kammerflimmer Kollektief - Absencen
DYEAR=2005
DGENRE=Ambient
TTITLE0=Lichterloh
TTITLE1=Nachtwachte, 15. September
TTITLE2=Hausen
TTITLE3=Equilibrium
TTITLE4=Alles Glühen
TTITLE5=Shibboleth
TTITLE6=Nach dem Regen
TTITLE7=Betäubt
TTITLE8=Unstet (für Jeffrey Lee Pierce)
TTITLE9=Matt
TTITLE10="Die Vögel sangen draußen ihre ungereimte Melodie."
TTITLE11=Data
EXTD=
EXTT0=
EXTT1=
EXTT2=
EXTT3=
EXTT4=
EXTT5=
EXTT6=
EXTT7=
EXTT8=
EXTT9=
EXTT10=
EXTT11=
PLAYORDER=
